<svg width="112" height="159" viewBox="0 0 112 159" fill="none" xmlns="http://www.w3.org/2000/svg">
<path d="M75.3462 157.975C74.4736 158.234 73.5537 158.296 72.4343 158.359C72.2347 158.36 72.2621 158.303 72.2557 158.083C72.5088 155.94 72.6322 153.988 73.0543 152.102C74.1527 147.194 74.8339 142.254 73.8257 137.283C73.0994 133.701 73.1475 130.258 73.847 126.656C74.9329 121.066 75.7848 115.323 72.7721 110.003C70.7041 106.352 69.8804 102.5 69.8732 98.3728C69.8654 93.8545 70.365 89.2287 69.5714 84.8438C68.4426 78.6066 66.319 72.5508 64.6555 66.4081C64.0487 64.1677 63.2031 61.923 63.0491 59.6409C62.4044 50.0901 61.9238 40.527 61.4973 30.9632C61.2303 24.9734 61.3014 18.9667 60.9511 12.9834C60.7926 10.2758 59.9784 7.60656 59.4616 4.91999C59.065 4.95173 58.6685 4.98354 58.2719 5.01534C57.5734 14.7905 56.8388 24.5633 56.1845 34.3415C55.071 50.9844 56.5702 67.4995 59.0163 83.9282C60.8496 96.2405 63.3168 108.459 65.1129 120.776C66.9228 133.188 67.9157 145.692 67.6928 158.262C66.83 158.294 65.9673 158.325 64.9182 158.163C64.7182 157.788 64.7046 157.608 64.7246 157.21C64.2298 147.461 63.7869 137.923 63.1253 128.4C62.9016 125.181 62.1243 122 61.6484 118.767C61.6968 118.733 61.6521 118.624 61.655 118.431C61.4735 117.5 61.2891 116.762 61.137 115.974C61.1692 115.924 61.1118 115.82 61.1215 115.632C60.9758 114.852 60.8206 114.258 60.7096 113.621C60.7538 113.578 60.6945 113.471 60.6962 113.262C60.4863 111.515 60.3151 109.97 60.0552 108.441C59.3431 104.251 58.5937 100.066 57.9068 95.8469C57.9545 95.8141 57.9118 95.7064 57.9136 95.5136C57.7307 94.5856 57.5462 93.8505 57.3877 93.0591C57.4137 93.0029 57.3529 92.8951 57.3599 92.6901C56.0497 81.1217 54.4249 69.7835 53.4885 58.3887C52.1439 42.0276 53.2653 25.6963 55.1846 9.41901C55.4033 7.56459 55.614 5.70921 55.8284 3.85434C55.5738 3.80769 55.3191 3.76104 55.0644 3.71445C54.7077 5.48264 54.2158 7.23587 54.0173 9.02171C53.1149 17.1427 52.295 25.2729 51.3517 33.5408C50.966 34.6465 50.7351 35.6349 50.3721 36.5722C48.5906 41.1726 47.5104 45.8876 47.1788 50.8468C46.6605 58.5965 45.9974 66.348 45.0261 74.0522C44.3382 79.5091 44.9256 84.4876 47.6883 89.338C49.0024 91.6451 49.873 94.3698 50.2494 97.0047C50.7406 100.443 50.7143 103.986 50.5955 107.473C50.4579 111.511 51.368 115.171 53.5082 118.57C54.2939 119.817 54.9965 121.117 55.7643 122.547C55.9455 122.969 56.0994 123.235 56.2476 123.567C56.2418 123.632 56.3164 123.738 56.3148 123.883C56.4433 124.274 56.5733 124.52 56.7166 124.745C56.7299 124.724 56.681 124.736 56.6862 124.906C56.8551 125.492 57.0188 125.908 57.1637 126.38C57.145 126.437 57.2127 126.534 57.2094 126.708C57.3516 127.31 57.4972 127.74 57.6277 128.236C57.6125 128.302 57.6815 128.42 57.6764 128.625C57.587 132.591 57.4477 136.353 57.4354 140.114C57.4249 143.321 57.5604 146.529 57.5842 149.777C57.5369 149.818 57.594 149.928 57.5955 150.133C57.966 152.696 58.335 155.054 58.6795 157.548C58.6693 157.869 58.6836 158.053 58.6978 158.237C57.7494 158.256 56.8011 158.275 55.6533 158.244C55.3556 156.572 55.511 154.886 55.1126 153.342C53.8186 148.328 53.8546 143.315 54.7524 138.282C55.8718 132.007 54.7083 126.166 51.3568 120.817C48.4793 116.224 47.1715 111.338 47.6193 105.929C48.1309 99.7506 47.2805 93.9237 43.9658 88.424C41.3453 84.0762 41.4167 79.0927 42.0063 74.1087C42.8467 67.0047 43.6946 59.8867 44.0906 52.7498C44.4002 47.1683 45.367 41.8289 47.1415 36.5349C48.1364 33.5666 48.5201 30.3658 48.9402 27.2377C49.945 19.7577 50.7143 12.2453 51.7762 4.7741C52.183 1.912 53.9542 0.442205 56.3566 0.204387C58.9012 -0.0475349 60.9021 0.853491 61.7456 3.68339C62.8881 7.51657 63.8202 11.5218 64.0478 15.4987C64.8976 30.3425 65.4079 45.2055 66.0964 60.059C66.1567 61.3596 66.4729 62.6791 66.8663 63.9281C68.4316 68.8976 70.2052 73.8054 71.6317 78.813C72.3048 81.1756 72.5495 83.7035 72.6648 86.1716C72.8464 90.0599 72.7228 93.9616 72.7883 97.8566C72.8532 101.71 73.4852 105.382 75.4905 108.826C78.4471 113.903 78.1522 119.496 77.1558 124.991C76.3714 129.318 76.273 133.495 76.7831 137.908C77.2992 142.375 76.4926 147.005 76.1578 151.555C76.0044 153.639 75.5932 155.705 75.3462 157.975Z" fill="#3C3E25"/>
<path d="M3.60755 157.963C2.66694 158.038 1.72634 158.112 0.650932 158.059C0.188999 152.222 1.65876 146.945 3.61399 141.595C4.70195 138.618 4.42307 134.974 4.10538 131.694C3.72578 127.775 3.87046 124.145 5.85175 120.638C9.39862 114.359 10.0626 107.412 10.5389 100.376C10.8979 95.071 12.1984 89.9253 14.8124 85.2042C17.7678 79.8666 17.5309 73.9494 17.9486 68.1425C18.4958 60.5353 19.1215 52.9337 19.673 45.3267C19.7394 44.4111 19.582 43.4743 19.4813 42.5524C18.886 37.1026 20.3944 32.3565 24.3893 28.5606C26.2013 26.8388 28.4111 25.7165 30.9868 26.7809C33.5036 27.8209 34.219 30.21 34.1974 32.5612C34.172 35.3171 34.7502 37.8697 35.3254 40.5246C36.3499 45.2531 35.6538 50.0267 34.0265 54.5391C32.3738 59.1221 32.4867 63.4802 34.4055 67.9213C36.0688 71.771 35.0033 75.7545 34.6709 79.6865C34.6121 80.3821 34.5509 81.1101 34.305 81.752C32.1278 87.4367 33.4265 92.9783 35.1569 98.4136C36.6053 102.963 36.6593 107.288 35.1385 111.874C33.282 117.471 33.2733 123.189 34.113 129.146C34.917 134.848 34.2552 140.76 34.1841 146.58C34.1385 150.316 33.996 154.05 33.9225 157.99C33.0849 158.236 32.2217 158.278 31.1753 158.062C31.1625 152.825 31.4018 147.848 31.4826 142.869C31.553 138.527 32.061 134.066 31.2732 129.865C30.0422 123.3 30.3536 116.981 32.3643 110.753C33.5954 106.94 33.5716 103.366 32.3963 99.5705C30.522 93.5187 29.4752 87.5011 31.2721 81.0224C32.3101 77.2797 32.4972 72.8059 31.4715 69.1033C29.9798 63.7188 29.3232 58.787 31.2679 53.4065C32.8887 48.9221 33.3067 44.1681 32.0039 39.4038C31.5838 37.8675 31.3984 36.2595 31.2007 34.6725C31.0764 33.6749 31.3714 32.5633 31.0332 31.6717C30.7027 30.8003 29.8072 30.1432 29.1598 29.392C28.8912 30.193 28.4054 30.9888 28.3862 31.7957C28.024 46.9779 27.6366 62.1603 27.4199 77.3449C27.1748 94.5172 24.8686 111.465 22.5054 128.436C21.1351 138.278 20.6844 148.247 19.8199 158.159C18.8385 158.177 17.8572 158.195 16.7706 157.901C17.8161 146.285 18.9402 134.979 20.1247 123.679C21.4148 111.372 23.1373 99.0964 23.9791 86.7599C24.8591 73.8624 24.9619 60.91 25.309 47.979C25.4479 42.8009 25.3318 37.6158 25.3318 32.4338C23.0994 35.2112 21.9356 38.2571 22.3781 41.8184C22.5499 43.2009 22.6856 44.6148 22.5954 45.9985C21.9926 55.2449 21.5289 64.508 20.5842 73.721C20.1621 77.8372 19.2972 82.1025 17.6261 85.851C15.0698 91.5851 13.3522 97.4443 13.2349 103.63C13.1025 110.612 11.0691 116.958 8.00471 123.07C6.8698 125.334 6.66753 127.583 6.97752 130.078C7.64366 135.44 7.87287 140.799 5.31457 145.863C3.38302 149.686 3.24357 153.798 3.60755 157.963Z" fill="#3C3E25"/>
<path d="M96.1135 158.268C95.1835 158.279 94.2535 158.29 93.1371 158.225C92.4716 155.107 92.3863 151.934 91.4187 149.057C90.0612 145.02 89.1278 141.026 89.1263 136.748C89.1231 127.732 88.1717 118.896 84.0858 110.615C83.1946 108.809 82.8459 106.536 82.9047 104.498C83.0667 98.8809 82.1582 93.4677 80.3679 88.2035C78.6413 83.1267 77.6795 77.9805 78.0298 72.6081C78.3353 67.9227 77.0364 63.5202 75.6252 59.1293C73.3455 52.0364 72.1808 44.7568 72.23 37.3002C72.2453 34.9861 72.9864 32.9892 75.2256 31.8972C77.4692 30.8031 80.1541 31.297 81.6305 33.6325C86.761 41.748 92.7477 49.5177 91.9673 60.0595C91.8096 62.1884 92.7403 64.7715 93.9975 66.5643C98.4378 72.8961 100.574 79.7447 99.8943 87.4515C99.6855 89.817 100.46 91.7349 101.819 93.721C104.987 98.3495 107.029 103.567 107.154 109.192C107.299 115.667 108.431 121.892 110.608 127.931C112.544 133.303 113.192 138.796 112.953 144.465C112.765 148.9 112.764 153.343 112.722 157.988C111.848 158.26 110.933 158.326 109.842 158.12C109.778 153.485 109.821 149.121 110.021 144.765C110.266 139.413 109.697 134.22 107.859 129.144C105.483 122.583 104.293 115.797 104.106 108.793C103.978 104.026 102.277 99.5569 99.5761 95.7197C97.6506 92.9838 96.7467 90.2915 96.9991 87.0391C97.5333 80.1556 95.5587 74.0493 91.6348 68.3543C90.2062 66.281 89.0301 63.4689 89.0995 61.0327C89.3191 53.3231 86.7171 46.7229 82.5353 40.52C81.7098 39.2955 81.0567 37.9559 80.2603 36.7102C79.8445 36.0598 79.2899 35.4982 78.798 34.8965C79.3819 37.7032 80.4277 40.214 81.1103 42.8199C86.158 62.0916 91.1659 81.3738 96.1195 100.67C99.2009 112.673 101.809 124.769 102.308 137.21C102.589 144.214 102.786 151.221 103.021 158.226C102.094 158.274 101.168 158.322 100.066 158.104C99.9065 144.9 99.9472 131.921 97.1601 119.227C93.5398 102.739 89.5936 86.3177 85.4889 69.9425C82.9363 59.7595 79.8429 49.7116 76.9554 39.6136C76.6583 38.5744 76.1096 37.6072 75.6776 36.6067C75.1527 38.016 75.0628 39.2453 75.1677 40.4578C75.7528 47.2227 77.0829 53.8175 79.0059 60.3564C80.2182 64.4784 80.843 68.8862 80.9609 73.1869C81.0949 78.0717 81.9178 82.6968 83.1491 87.4073C84.4947 92.5551 84.9508 97.9335 85.8322 103.205C86.2513 105.712 86.2833 108.421 87.3118 110.662C90.6029 117.832 91.8431 125.331 91.9768 133.123C92.0744 138.809 92.5837 144.39 94.7796 149.803C95.8253 152.381 95.7054 155.432 96.1135 158.268Z" fill="#3C3E25"/>
<path d="M67.891 158.293C67.9157 145.692 66.9228 133.188 65.1129 120.776C63.3168 108.459 60.8496 96.2405 59.0163 83.9281C56.5701 67.4994 55.071 50.9843 56.1845 34.3414C56.8388 24.5633 57.5734 14.7904 58.2719 5.01528C58.6684 4.98347 59.065 4.95167 59.4616 4.91992C59.9783 7.6065 60.7926 10.2757 60.9511 12.9833C61.3014 18.9667 61.2303 24.9734 61.4973 30.9632C61.9237 40.5269 62.4044 50.0901 63.049 59.6408C63.2031 61.9229 64.0487 64.1677 64.6554 66.4081C66.319 72.5508 68.4426 78.6065 69.5714 84.8437C70.365 89.2286 69.8654 93.8544 69.8732 98.3727C69.8804 102.5 70.7041 106.352 72.7721 110.003C75.7848 115.323 74.9329 121.066 73.847 126.656C73.1475 130.258 73.0994 133.701 73.8257 137.282C74.8339 142.254 74.1527 147.194 73.0543 152.102C72.6322 153.988 72.5088 155.94 72.2325 158.061C70.8402 158.282 69.4647 158.303 67.891 158.293Z" fill="#E8A63C"/>
<path d="M3.81524 158.008C3.24389 153.798 3.38334 149.686 5.31489 145.863C7.87319 140.799 7.64398 135.44 6.97784 130.078C6.66785 127.583 6.87013 125.334 8.00503 123.07C11.0694 116.958 13.1028 110.612 13.2352 103.63C13.3526 97.4441 15.0701 91.5848 17.6264 85.8508C19.2976 82.1022 20.1624 77.837 20.5845 73.7208C21.5292 64.5078 21.9929 55.2446 22.5957 45.9983C22.6859 44.6145 22.5502 43.2006 22.3784 41.8182C21.9359 38.2569 23.0997 35.211 25.3321 32.4336C25.3321 37.6156 25.4482 42.8006 25.3093 47.9788C24.9622 60.9098 24.8594 73.8622 23.9794 86.7597C23.1377 99.0962 21.4151 111.372 20.125 123.679C18.9405 134.978 17.8164 146.284 16.6133 157.81C12.3815 158.039 8.20204 158.046 3.81524 158.008Z" fill="#E8A63C"/>
<path d="M57.6809 128.419C57.6809 128.419 57.6119 128.302 57.653 128.054C57.5334 127.382 57.3727 126.958 57.2121 126.534C57.2121 126.534 57.1444 126.436 57.1867 126.196C57.0462 125.55 56.8633 125.142 56.6804 124.735C56.6804 124.735 56.7292 124.724 56.7339 124.597C56.5976 124.227 56.4567 123.982 56.3158 123.737C56.3158 123.737 56.2412 123.631 56.2559 123.398C56.0925 122.907 55.9144 122.65 55.7364 122.393C54.9959 121.117 54.2932 119.817 53.5076 118.569C51.3674 115.171 50.4573 111.51 50.5948 107.472C50.7137 103.985 50.7399 100.443 50.2487 97.0043C49.8723 94.3694 49.0017 91.6446 47.6877 89.3375C44.9249 84.4871 44.3375 79.5086 45.0255 74.0517C45.9968 66.3475 46.6598 58.596 47.1781 50.8463C47.5098 45.8871 48.59 41.1721 50.3715 36.5717C50.7344 35.6344 50.9654 34.646 51.4896 33.4913C51.9681 33.0793 52.2142 32.8572 52.5719 32.5342C52.5719 39.3105 52.2367 45.9095 52.6482 52.4614C53.3123 63.0351 54.3869 73.5863 55.4686 84.1285C55.7718 87.0838 56.7069 89.9744 57.3522 92.8946C57.3522 92.8946 57.4131 93.0025 57.3614 93.2645C57.5102 94.253 57.7107 94.9795 57.9112 95.7059C57.9112 95.7059 57.9538 95.8136 57.8781 96.0667C58.2399 99.5154 58.6098 102.722 59.1363 105.903C59.5565 108.442 60.1675 110.949 60.6938 113.47C60.6938 113.47 60.7532 113.578 60.6801 113.818C60.7751 114.645 60.9431 115.232 61.1112 115.819C61.1112 115.819 61.1686 115.923 61.1108 116.18C61.2525 117.166 61.452 117.895 61.6514 118.624C61.6514 118.624 61.6961 118.733 61.6198 118.988C61.5368 119.632 61.4771 120.029 61.5311 120.409C63.1914 132.098 64.2168 143.835 64.3138 155.647C64.3187 156.241 64.5594 156.833 64.6902 157.426C64.7039 157.607 64.7176 157.788 64.7096 158.102C64.489 158.257 64.2901 158.277 63.7933 158.177C62.2097 158.118 60.9239 158.179 59.6381 158.24C59.4283 158.253 59.2185 158.266 58.8529 158.258C58.6829 158.053 58.6687 157.869 58.7951 157.411C58.4884 154.734 58.0408 152.331 57.5933 149.928C57.5933 149.928 57.5363 149.817 57.6116 149.537C58.0046 144.948 58.5027 140.642 58.5731 136.33C58.616 133.699 58.0006 131.057 57.6809 128.419Z" fill="#EBA63A"/>
<path d="M20.0371 158.192C20.6846 148.248 21.1353 138.278 22.5056 128.437C24.8689 111.465 27.1751 94.5178 27.4201 77.3454C27.6368 62.1608 28.0242 46.9784 28.3864 31.7962C28.4057 30.9893 28.8914 30.1936 29.16 29.3926C29.8075 30.1437 30.703 30.8009 31.0334 31.6722C31.3716 32.5639 31.0767 33.6754 31.2009 34.673C31.3986 36.2601 31.584 37.868 32.0041 39.4044C33.3069 44.1686 32.889 48.9226 31.2682 53.407C29.3235 58.7875 29.98 63.7193 31.4717 69.1038C32.4975 72.8065 32.3104 77.2802 31.2723 81.023C29.4754 87.5016 30.5222 93.5193 32.3965 99.571C33.5719 103.366 33.5956 106.941 32.3645 110.754C30.3538 116.982 30.0424 123.301 31.2734 129.866C32.0612 134.067 31.5532 138.527 31.4828 142.87C31.402 147.849 31.1627 152.826 30.9676 158.01C27.3799 158.219 23.817 158.222 20.0371 158.192Z" fill="#E6A53D"/>
<path d="M59.8447 158.276C60.9249 158.179 62.2107 158.118 63.6453 158.153C62.5462 158.269 61.2982 158.29 59.8447 158.276Z" fill="#CC9E4C"/>
<path d="M96.3196 158.279C95.7052 155.432 95.8251 152.381 94.7794 149.803C92.5835 144.39 92.0742 138.809 91.9766 133.123C91.8429 125.331 90.6027 117.832 87.3116 110.662C86.2831 108.421 86.2511 105.712 85.832 103.205C84.9506 97.9338 84.4945 92.5553 83.1489 87.4076C81.9176 82.697 81.0947 78.072 80.9607 73.1872C80.8428 68.8865 80.218 64.4787 79.0057 60.3567C77.0827 53.8177 75.7526 47.223 75.1675 40.458C75.0626 39.2456 75.1525 38.0163 75.6774 36.6069C76.1094 37.6075 76.6581 38.5747 76.9552 39.6138C79.8427 49.7118 82.9361 59.7598 85.4887 69.9427C89.5934 86.3179 93.5396 102.739 97.1599 119.227C99.947 131.921 99.9063 144.901 99.8729 158.049C98.7455 158.269 97.6357 158.279 96.3196 158.279Z" fill="#E6A53D"/>
<path d="M103.242 158.256C102.786 151.221 102.589 144.214 102.308 137.211C101.809 124.769 99.2007 112.673 96.1194 100.67C91.1657 81.3742 86.1578 62.092 81.1101 42.8204C80.4275 40.2145 79.3818 37.7036 78.7979 34.897C79.2897 35.4987 79.8444 36.0603 80.2601 36.7106C81.0566 37.9564 81.7097 39.296 82.5352 40.5204C86.717 46.7234 89.3189 53.3235 89.0994 61.0332C89.03 63.4694 90.206 66.2814 91.6346 68.3547C95.5585 74.0498 97.5332 80.156 96.999 87.0396C96.7465 90.292 97.6504 92.9843 99.576 95.7202C102.277 99.5574 103.978 104.026 104.105 108.794C104.293 115.797 105.483 122.583 107.859 129.144C109.697 134.22 110.266 139.413 110.021 144.765C109.821 149.122 109.778 153.486 109.651 158.057C107.579 158.273 105.521 158.279 103.242 158.256Z" fill="#E5A53E"/>
<path d="M57.3608 92.6895C56.7084 89.9743 55.7733 87.0837 55.4701 84.1284C54.3884 73.5862 53.3138 63.035 52.6497 52.4613C52.2382 45.9094 52.5734 39.3105 52.5734 32.5341C52.2157 32.8571 51.9696 33.0792 51.585 33.3503C52.2959 25.2723 53.1157 17.1421 54.0182 9.02113C54.2166 7.23529 54.7085 5.48206 55.0653 3.71387C55.32 3.76046 55.5746 3.80711 55.8293 3.85376C55.6149 5.70863 55.4042 7.56401 55.1855 9.41842C53.2662 25.6957 52.1448 42.027 53.4894 58.3881C54.4258 69.7829 56.0506 81.1211 57.3608 92.6895Z" fill="#CC9E4C"/>
<path d="M64.7243 157.21C64.5597 156.834 64.3191 156.242 64.3142 155.648C64.2172 143.836 63.1918 132.098 61.5315 120.41C61.4774 120.029 61.5371 119.633 61.5718 119.022C62.1241 122 62.9013 125.181 63.125 128.4C63.7866 137.923 64.2295 147.461 64.7243 157.21Z" fill="#CC9E4C"/>
<path d="M57.6761 128.625C58.001 131.057 58.6164 133.699 58.5735 136.33C58.5031 140.643 58.005 144.948 57.6592 149.496C57.5602 146.529 57.4246 143.321 57.4351 140.114C57.4475 136.352 57.5868 132.591 57.6761 128.625Z" fill="#CC9E4C"/>
<path d="M60.6972 113.262C60.1692 110.95 59.5582 108.442 59.1379 105.904C58.6114 102.723 58.2415 99.5159 57.832 96.1001C58.5947 100.066 59.3441 104.251 60.0562 108.441C60.3161 109.971 60.4873 111.515 60.6972 113.262Z" fill="#CC9E4C"/>
<path d="M57.5957 150.133C58.0417 152.331 58.4892 154.734 58.8203 157.274C58.3351 155.054 57.9662 152.696 57.5957 150.133Z" fill="#CC9E4C"/>
<path d="M61.6549 118.431C61.4525 117.895 61.2531 117.166 61.0791 116.23C61.289 116.762 61.4734 117.499 61.6549 118.431Z" fill="#CC9E4C"/>
<path d="M57.9135 95.5132C57.7113 94.9796 57.5108 94.2532 57.3359 93.3208C57.5461 93.8501 57.7306 94.5853 57.9135 95.5132Z" fill="#CC9E4C"/>
<path d="M61.1217 115.632C60.944 115.232 60.7759 114.645 60.6367 113.861C60.8208 114.258 60.976 114.851 61.1217 115.632Z" fill="#CC9E4C"/>
<path d="M56.6865 124.905C56.8642 125.143 57.0471 125.55 57.2064 126.14C57.0191 125.907 56.8554 125.491 56.6865 124.905Z" fill="#CC9E4C"/>
<path d="M57.21 126.708C57.374 126.958 57.5347 127.383 57.6694 127.988C57.4978 127.74 57.3522 127.31 57.21 126.708Z" fill="#CC9E4C"/>
<path d="M56.3145 123.883C56.457 123.983 56.5979 124.227 56.721 124.619C56.573 124.52 56.4429 124.274 56.3145 123.883Z" fill="#CC9E4C"/>
<path d="M55.7646 122.547C55.9155 122.65 56.0935 122.907 56.2627 123.334C56.0998 123.235 55.9459 122.968 55.7646 122.547Z" fill="#CC9E4C"/>
</svg>
