<svg width="101" height="100" viewBox="0 0 101 100" fill="none" xmlns="http://www.w3.org/2000/svg">
<rect x="0.447266" width="100" height="100" rx="50" fill="white"/>
<path d="M10.4473 58.5448C30.4407 24.9611 68.1746 21.9794 90.4473 58.5448" stroke="#EDA738" stroke-width="3" stroke-linecap="round"/>
<path d="M50.406 45.6245C44.5869 45.4162 39.5646 50.4048 40.1134 55.9565C40.6149 61.0296 45.0886 64.6969 50.406 64.507C55.5079 64.3248 59.4736 60.8238 59.9551 55.9565C60.4858 50.5922 56.0288 45.8257 50.406 45.6245Z" fill="#F2DCBD" stroke="#EDA738" stroke-linecap="round"/>
<path d="M19.2803 56.9067C38.3776 87.0713 64.5439 86.1212 80.7896 56.9067" stroke="#EDA738" stroke-width="3" stroke-linecap="round"/>
<path d="M18.3652 25.9761L24.2155 31.0911" stroke="#EDA738" stroke-width="3" stroke-linecap="round"/>
<path d="M32.3906 13.6245L37.1508 25.3168" stroke="#EDA738" stroke-width="3" stroke-linecap="round"/>
<path d="M82.3389 25.9761L76.4886 31.0911" stroke="#EDA738" stroke-width="3" stroke-linecap="round"/>
<path d="M68.3135 13.6245L63.5533 25.3168" stroke="#EDA738" stroke-width="3" stroke-linecap="round"/>
<path d="M50.3486 9.17529L50.3562 24.222" stroke="#EDA738" stroke-width="3" stroke-linecap="round"/>
</svg>
