<svg width="101" height="100" viewBox="0 0 101 100" fill="none" xmlns="http://www.w3.org/2000/svg">
<rect x="0.447266" width="100" height="100" rx="50" fill="white"/>
<circle cx="50.4473" cy="50" r="34" stroke="#F2DCBD" stroke-width="2"/>
<circle cx="50.4477" cy="49.9999" r="24.2778" stroke="#F2DCBD" stroke-width="2"/>
<circle cx="50.448" cy="49.9998" r="12.6111" stroke="#F2DCBD" stroke-width="2"/>
<path d="M48.888 48.6558C49.3455 47.6476 51.063 46.8132 52.382 48.0065C60.3305 40.7202 71.637 28.6278 71.637 28.6278V23.0306L78.0824 16.1611V23.0306L84.6126 22.5216L76.9799 28.6278H71.637C71.637 28.6278 60.3305 40.7202 52.382 48.0065C53.7009 49.1998 53.0451 50.4956 52.9048 50.9222C52.382 52.5111 50.9988 52.4556 49.6359 51.6743C48.4 50.9658 48.2994 49.9531 48.888 48.6558Z" fill="#EDA738"/>
<path d="M52.382 48.0065C51.063 46.8132 49.3455 47.6476 48.888 48.6558C48.2994 49.9531 48.4 50.9658 49.6359 51.6743C50.9988 52.4556 52.382 52.5111 52.9048 50.9222C53.0451 50.4956 53.7009 49.1998 52.382 48.0065ZM52.382 48.0065C60.3305 40.7202 71.637 28.6278 71.637 28.6278M71.637 28.6278V23.0306L78.0824 16.1611V23.0306L84.6126 22.5216L76.9799 28.6278H71.637Z" stroke="#EDA738" stroke-width="4"/>
</svg>
