<svg width="101" height="100" viewBox="0 0 101 100" fill="none" xmlns="http://www.w3.org/2000/svg">
<rect x="0.447266" width="100" height="100" rx="50" fill="white"/>
<path fill-rule="evenodd" clip-rule="evenodd" d="M50.427 32.9795C44.5955 26.162 34.8712 24.3281 27.5648 30.5709C20.2584 36.8136 19.2298 47.2512 24.9675 54.6345C29.7381 60.7732 44.1754 73.7203 48.9072 77.9108C49.4366 78.3796 49.7013 78.614 50.0101 78.7061C50.2795 78.7865 50.5744 78.7865 50.8439 78.7061C51.1526 78.614 51.4173 78.3796 51.9467 77.9108C56.6785 73.7203 71.1158 60.7732 75.8864 54.6345C81.6242 47.2512 80.7211 36.748 73.2891 30.5709C65.8571 24.3938 56.2584 26.162 50.427 32.9795Z" stroke="#EDA738" stroke-width="3" stroke-linecap="round" stroke-linejoin="round"/>
</svg>
