<svg width="127" height="127" viewBox="0 0 127 127" fill="none" xmlns="http://www.w3.org/2000/svg">
<rect x="0.448242" y="0.358887" width="126" height="126" rx="6.24622" fill="white"/>
<path d="M10.8584 10.769H15.8669V15.7776H10.8584V10.769Z" fill="black"/>
<path d="M15.8669 10.769H20.8755V15.7776H15.8669V10.769Z" fill="black"/>
<path d="M20.8755 10.769H25.884V15.7776H20.8755V10.769Z" fill="black"/>
<path d="M25.884 10.769H30.8925V15.7776H25.884V10.769Z" fill="black"/>
<path d="M30.8925 10.769H35.9011V15.7776H30.8925V10.769Z" fill="black"/>
<path d="M35.9011 10.769H40.9096V15.7776H35.9011V10.769Z" fill="black"/>
<path d="M40.9096 10.769H45.9182V15.7776H40.9096V10.769Z" fill="black"/>
<path d="M55.9352 10.769H60.9438V15.7776H55.9352V10.769Z" fill="black"/>
<path d="M80.9779 10.769H85.9864V15.7776H80.9779V10.769Z" fill="black"/>
<path d="M85.9864 10.769H90.995V15.7776H85.9864V10.769Z" fill="black"/>
<path d="M90.995 10.769H96.0035V15.7776H90.995V10.769Z" fill="black"/>
<path d="M96.0035 10.769H101.012V15.7776H96.0035V10.769Z" fill="black"/>
<path d="M101.012 10.769H106.021V15.7776H101.012V10.769Z" fill="black"/>
<path d="M106.021 10.769H111.029V15.7776H106.021V10.769Z" fill="black"/>
<path d="M111.029 10.769H116.038V15.7776H111.029V10.769Z" fill="black"/>
<path d="M10.8584 15.7776H15.8669V20.7861H10.8584V15.7776Z" fill="black"/>
<path d="M40.9096 15.7776H45.9182V20.7861H40.9096V15.7776Z" fill="black"/>
<path d="M55.9352 15.7776H60.9438V20.7861H55.9352V15.7776Z" fill="black"/>
<path d="M60.9438 15.7776H65.9523V20.7861H60.9438V15.7776Z" fill="black"/>
<path d="M65.9523 15.7776H70.9608V20.7861H65.9523V15.7776Z" fill="black"/>
<path d="M70.9608 15.7776H75.9694V20.7861H70.9608V15.7776Z" fill="black"/>
<path d="M80.9779 15.7776H85.9864V20.7861H80.9779V15.7776Z" fill="black"/>
<path d="M111.029 15.7776H116.038V20.7861H111.029V15.7776Z" fill="black"/>
<path d="M10.8584 20.7861H15.8669V25.7947H10.8584V20.7861Z" fill="black"/>
<path d="M20.8755 20.7861H25.884V25.7947H20.8755V20.7861Z" fill="black"/>
<path d="M25.884 20.7861H30.8925V25.7947H25.884V20.7861Z" fill="black"/>
<path d="M30.8925 20.7861H35.9011V25.7947H30.8925V20.7861Z" fill="black"/>
<path d="M40.9096 20.7861H45.9182V25.7947H40.9096V20.7861Z" fill="black"/>
<path d="M50.9267 20.7861H55.9352V25.7947H50.9267V20.7861Z" fill="black"/>
<path d="M55.9352 20.7861H60.9438V25.7947H55.9352V20.7861Z" fill="black"/>
<path d="M65.9523 20.7861H70.9608V25.7947H65.9523V20.7861Z" fill="black"/>
<path d="M70.9608 20.7861H75.9694V25.7947H70.9608V20.7861Z" fill="black"/>
<path d="M80.9779 20.7861H85.9864V25.7947H80.9779V20.7861Z" fill="black"/>
<path d="M90.995 20.7861H96.0035V25.7947H90.995V20.7861Z" fill="black"/>
<path d="M96.0035 20.7861H101.012V25.7947H96.0035V20.7861Z" fill="black"/>
<path d="M101.012 20.7861H106.021V25.7947H101.012V20.7861Z" fill="black"/>
<path d="M111.029 20.7861H116.038V25.7947H111.029V20.7861Z" fill="black"/>
<path d="M10.8584 25.7947H15.8669V30.8032H10.8584V25.7947Z" fill="black"/>
<path d="M20.8755 25.7947H25.884V30.8032H20.8755V25.7947Z" fill="black"/>
<path d="M25.884 25.7947H30.8925V30.8032H25.884V25.7947Z" fill="black"/>
<path d="M30.8925 25.7947H35.9011V30.8032H30.8925V25.7947Z" fill="black"/>
<path d="M40.9096 25.7947H45.9182V30.8032H40.9096V25.7947Z" fill="black"/>
<path d="M50.9267 25.7947H55.9352V30.8032H50.9267V25.7947Z" fill="black"/>
<path d="M60.9438 25.7947H65.9523V30.8032H60.9438V25.7947Z" fill="black"/>
<path d="M65.9523 25.7947H70.9608V30.8032H65.9523V25.7947Z" fill="black"/>
<path d="M70.9608 25.7947H75.9694V30.8032H70.9608V25.7947Z" fill="black"/>
<path d="M80.9779 25.7947H85.9864V30.8032H80.9779V25.7947Z" fill="black"/>
<path d="M90.995 25.7947H96.0035V30.8032H90.995V25.7947Z" fill="black"/>
<path d="M96.0035 25.7947H101.012V30.8032H96.0035V25.7947Z" fill="black"/>
<path d="M101.012 25.7947H106.021V30.8032H101.012V25.7947Z" fill="black"/>
<path d="M111.029 25.7947H116.038V30.8032H111.029V25.7947Z" fill="black"/>
<path d="M10.8584 30.8032H15.8669V35.8117H10.8584V30.8032Z" fill="black"/>
<path d="M20.8755 30.8032H25.884V35.8117H20.8755V30.8032Z" fill="black"/>
<path d="M25.884 30.8032H30.8925V35.8117H25.884V30.8032Z" fill="black"/>
<path d="M30.8925 30.8032H35.9011V35.8117H30.8925V30.8032Z" fill="black"/>
<path d="M40.9096 30.8032H45.9182V35.8117H40.9096V30.8032Z" fill="black"/>
<path d="M60.9438 30.8032H65.9523V35.8117H60.9438V30.8032Z" fill="black"/>
<path d="M65.9523 30.8032H70.9608V35.8117H65.9523V30.8032Z" fill="black"/>
<path d="M70.9608 30.8032H75.9694V35.8117H70.9608V30.8032Z" fill="black"/>
<path d="M80.9779 30.8032H85.9864V35.8117H80.9779V30.8032Z" fill="black"/>
<path d="M90.995 30.8032H96.0035V35.8117H90.995V30.8032Z" fill="black"/>
<path d="M96.0035 30.8032H101.012V35.8117H96.0035V30.8032Z" fill="black"/>
<path d="M101.012 30.8032H106.021V35.8117H101.012V30.8032Z" fill="black"/>
<path d="M111.029 30.8032H116.038V35.8117H111.029V30.8032Z" fill="black"/>
<path d="M10.8584 35.8117H15.8669V40.8203H10.8584V35.8117Z" fill="black"/>
<path d="M40.9096 35.8117H45.9182V40.8203H40.9096V35.8117Z" fill="black"/>
<path d="M55.9352 35.8117H60.9438V40.8203H55.9352V35.8117Z" fill="black"/>
<path d="M80.9779 35.8117H85.9864V40.8203H80.9779V35.8117Z" fill="black"/>
<path d="M111.029 35.8117H116.038V40.8203H111.029V35.8117Z" fill="black"/>
<path d="M10.8584 40.8203H15.8669V45.8288H10.8584V40.8203Z" fill="black"/>
<path d="M15.8669 40.8203H20.8755V45.8288H15.8669V40.8203Z" fill="black"/>
<path d="M20.8755 40.8203H25.884V45.8288H20.8755V40.8203Z" fill="black"/>
<path d="M25.884 40.8203H30.8925V45.8288H25.884V40.8203Z" fill="black"/>
<path d="M30.8925 40.8203H35.9011V45.8288H30.8925V40.8203Z" fill="black"/>
<path d="M35.9011 40.8203H40.9096V45.8288H35.9011V40.8203Z" fill="black"/>
<path d="M40.9096 40.8203H45.9182V45.8288H40.9096V40.8203Z" fill="black"/>
<path d="M50.9267 40.8203H55.9352V45.8288H50.9267V40.8203Z" fill="black"/>
<path d="M60.9438 40.8203H65.9523V45.8288H60.9438V40.8203Z" fill="black"/>
<path d="M70.9608 40.8203H75.9694V45.8288H70.9608V40.8203Z" fill="black"/>
<path d="M80.9779 40.8203H85.9864V45.8288H80.9779V40.8203Z" fill="black"/>
<path d="M85.9864 40.8203H90.995V45.8288H85.9864V40.8203Z" fill="black"/>
<path d="M90.995 40.8203H96.0035V45.8288H90.995V40.8203Z" fill="black"/>
<path d="M96.0035 40.8203H101.012V45.8288H96.0035V40.8203Z" fill="black"/>
<path d="M101.012 40.8203H106.021V45.8288H101.012V40.8203Z" fill="black"/>
<path d="M106.021 40.8203H111.029V45.8288H106.021V40.8203Z" fill="black"/>
<path d="M111.029 40.8203H116.038V45.8288H111.029V40.8203Z" fill="black"/>
<path d="M55.9352 45.8288H60.9438V50.8373H55.9352V45.8288Z" fill="black"/>
<path d="M65.9523 45.8288H70.9608V50.8373H65.9523V45.8288Z" fill="black"/>
<path d="M25.884 50.8373H30.8925V55.8459H25.884V50.8373Z" fill="black"/>
<path d="M30.8925 50.8373H35.9011V55.8459H30.8925V50.8373Z" fill="black"/>
<path d="M40.9096 50.8373H45.9182V55.8459H40.9096V50.8373Z" fill="black"/>
<path d="M45.9182 50.8373H50.9267V55.8459H45.9182V50.8373Z" fill="black"/>
<path d="M55.9352 50.8373H60.9438V55.8459H55.9352V50.8373Z" fill="black"/>
<path d="M65.9523 50.8373H70.9608V55.8459H65.9523V50.8373Z" fill="black"/>
<path d="M70.9608 50.8373H75.9694V55.8459H70.9608V50.8373Z" fill="black"/>
<path d="M96.0035 50.8373H101.012V55.8459H96.0035V50.8373Z" fill="black"/>
<path d="M101.012 50.8373H106.021V55.8459H101.012V50.8373Z" fill="black"/>
<path d="M15.8669 55.8459H20.8755V60.8544H15.8669V55.8459Z" fill="black"/>
<path d="M25.884 55.8459H30.8925V60.8544H25.884V55.8459Z" fill="black"/>
<path d="M30.8925 55.8459H35.9011V60.8544H30.8925V55.8459Z" fill="black"/>
<path d="M45.9182 55.8459H50.9267V60.8544H45.9182V55.8459Z" fill="black"/>
<path d="M50.9267 55.8459H55.9352V60.8544H50.9267V55.8459Z" fill="black"/>
<path d="M75.9694 55.8459H80.9779V60.8544H75.9694V55.8459Z" fill="black"/>
<path d="M80.9779 55.8459H85.9864V60.8544H80.9779V55.8459Z" fill="black"/>
<path d="M90.995 55.8459H96.0035V60.8544H90.995V55.8459Z" fill="black"/>
<path d="M96.0035 55.8459H101.012V60.8544H96.0035V55.8459Z" fill="black"/>
<path d="M101.012 55.8459H106.021V60.8544H101.012V55.8459Z" fill="black"/>
<path d="M106.021 55.8459H111.029V60.8544H106.021V55.8459Z" fill="black"/>
<path d="M15.8669 60.8544H20.8755V65.8629H15.8669V60.8544Z" fill="black"/>
<path d="M20.8755 60.8544H25.884V65.8629H20.8755V60.8544Z" fill="black"/>
<path d="M30.8925 60.8544H35.9011V65.8629H30.8925V60.8544Z" fill="black"/>
<path d="M40.9096 60.8544H45.9182V65.8629H40.9096V60.8544Z" fill="black"/>
<path d="M50.9267 60.8544H55.9352V65.8629H50.9267V60.8544Z" fill="black"/>
<path d="M60.9438 60.8544H65.9523V65.8629H60.9438V60.8544Z" fill="black"/>
<path d="M65.9523 60.8544H70.9608V65.8629H65.9523V60.8544Z" fill="black"/>
<path d="M80.9779 60.8544H85.9864V65.8629H80.9779V60.8544Z" fill="black"/>
<path d="M90.995 60.8544H96.0035V65.8629H90.995V60.8544Z" fill="black"/>
<path d="M106.021 60.8544H111.029V65.8629H106.021V60.8544Z" fill="black"/>
<path d="M111.029 60.8544H116.038V65.8629H111.029V60.8544Z" fill="black"/>
<path d="M10.8584 65.8629H15.8669V70.8715H10.8584V65.8629Z" fill="black"/>
<path d="M15.8669 65.8629H20.8755V70.8715H15.8669V65.8629Z" fill="black"/>
<path d="M30.8925 65.8629H35.9011V70.8715H30.8925V65.8629Z" fill="black"/>
<path d="M35.9011 65.8629H40.9096V70.8715H35.9011V65.8629Z" fill="black"/>
<path d="M60.9438 65.8629H65.9523V70.8715H60.9438V65.8629Z" fill="black"/>
<path d="M65.9523 65.8629H70.9608V70.8715H65.9523V65.8629Z" fill="black"/>
<path d="M70.9608 65.8629H75.9694V70.8715H70.9608V65.8629Z" fill="black"/>
<path d="M75.9694 65.8629H80.9779V70.8715H75.9694V65.8629Z" fill="black"/>
<path d="M101.012 65.8629H106.021V70.8715H101.012V65.8629Z" fill="black"/>
<path d="M106.021 65.8629H111.029V70.8715H106.021V65.8629Z" fill="black"/>
<path d="M111.029 65.8629H116.038V70.8715H111.029V65.8629Z" fill="black"/>
<path d="M10.8584 70.8715H15.8669V75.88H10.8584V70.8715Z" fill="black"/>
<path d="M15.8669 70.8715H20.8755V75.88H15.8669V70.8715Z" fill="black"/>
<path d="M20.8755 70.8715H25.884V75.88H20.8755V70.8715Z" fill="black"/>
<path d="M25.884 70.8715H30.8925V75.88H25.884V70.8715Z" fill="black"/>
<path d="M40.9096 70.8715H45.9182V75.88H40.9096V70.8715Z" fill="black"/>
<path d="M45.9182 70.8715H50.9267V75.88H45.9182V70.8715Z" fill="black"/>
<path d="M60.9438 70.8715H65.9523V75.88H60.9438V70.8715Z" fill="black"/>
<path d="M65.9523 70.8715H70.9608V75.88H65.9523V70.8715Z" fill="black"/>
<path d="M70.9608 70.8715H75.9694V75.88H70.9608V70.8715Z" fill="black"/>
<path d="M75.9694 70.8715H80.9779V75.88H75.9694V70.8715Z" fill="black"/>
<path d="M111.029 70.8715H116.038V75.88H111.029V70.8715Z" fill="black"/>
<path d="M50.9267 75.88H55.9352V80.8885H50.9267V75.88Z" fill="black"/>
<path d="M70.9608 75.88H75.9694V80.8885H70.9608V75.88Z" fill="black"/>
<path d="M75.9694 75.88H80.9779V80.8885H75.9694V75.88Z" fill="black"/>
<path d="M80.9779 75.88H85.9864V80.8885H80.9779V75.88Z" fill="black"/>
<path d="M85.9864 75.88H90.995V80.8885H85.9864V75.88Z" fill="black"/>
<path d="M96.0035 75.88H101.012V80.8885H96.0035V75.88Z" fill="black"/>
<path d="M101.012 75.88H106.021V80.8885H101.012V75.88Z" fill="black"/>
<path d="M10.8584 80.8885H15.8669V85.8971H10.8584V80.8885Z" fill="black"/>
<path d="M15.8669 80.8885H20.8755V85.8971H15.8669V80.8885Z" fill="black"/>
<path d="M20.8755 80.8885H25.884V85.8971H20.8755V80.8885Z" fill="black"/>
<path d="M25.884 80.8885H30.8925V85.8971H25.884V80.8885Z" fill="black"/>
<path d="M30.8925 80.8885H35.9011V85.8971H30.8925V80.8885Z" fill="black"/>
<path d="M35.9011 80.8885H40.9096V85.8971H35.9011V80.8885Z" fill="black"/>
<path d="M40.9096 80.8885H45.9182V85.8971H40.9096V80.8885Z" fill="black"/>
<path d="M50.9267 80.8885H55.9352V85.8971H50.9267V80.8885Z" fill="black"/>
<path d="M60.9438 80.8885H65.9523V85.8971H60.9438V80.8885Z" fill="black"/>
<path d="M70.9608 80.8885H75.9694V85.8971H70.9608V80.8885Z" fill="black"/>
<path d="M80.9779 80.8885H85.9864V85.8971H80.9779V80.8885Z" fill="black"/>
<path d="M85.9864 80.8885H90.995V85.8971H85.9864V80.8885Z" fill="black"/>
<path d="M90.995 80.8885H96.0035V85.8971H90.995V80.8885Z" fill="black"/>
<path d="M96.0035 80.8885H101.012V85.8971H96.0035V80.8885Z" fill="black"/>
<path d="M10.8584 85.8971H15.8669V90.9056H10.8584V85.8971Z" fill="black"/>
<path d="M40.9096 85.8971H45.9182V90.9056H40.9096V85.8971Z" fill="black"/>
<path d="M55.9352 85.8971H60.9438V90.9056H55.9352V85.8971Z" fill="black"/>
<path d="M70.9608 85.8971H75.9694V90.9056H70.9608V85.8971Z" fill="black"/>
<path d="M80.9779 85.8971H85.9864V90.9056H80.9779V85.8971Z" fill="black"/>
<path d="M85.9864 85.8971H90.995V90.9056H85.9864V85.8971Z" fill="black"/>
<path d="M90.995 85.8971H96.0035V90.9056H90.995V85.8971Z" fill="black"/>
<path d="M101.012 85.8971H106.021V90.9056H101.012V85.8971Z" fill="black"/>
<path d="M111.029 85.8971H116.038V90.9056H111.029V85.8971Z" fill="black"/>
<path d="M10.8584 90.9056H15.8669V95.9142H10.8584V90.9056Z" fill="black"/>
<path d="M20.8755 90.9056H25.884V95.9142H20.8755V90.9056Z" fill="black"/>
<path d="M25.884 90.9056H30.8925V95.9142H25.884V90.9056Z" fill="black"/>
<path d="M30.8925 90.9056H35.9011V95.9142H30.8925V90.9056Z" fill="black"/>
<path d="M40.9096 90.9056H45.9182V95.9142H40.9096V90.9056Z" fill="black"/>
<path d="M50.9267 90.9056H55.9352V95.9142H50.9267V90.9056Z" fill="black"/>
<path d="M55.9352 90.9056H60.9438V95.9142H55.9352V90.9056Z" fill="black"/>
<path d="M60.9438 90.9056H65.9523V95.9142H60.9438V90.9056Z" fill="black"/>
<path d="M70.9608 90.9056H75.9694V95.9142H70.9608V90.9056Z" fill="black"/>
<path d="M80.9779 90.9056H85.9864V95.9142H80.9779V90.9056Z" fill="black"/>
<path d="M85.9864 90.9056H90.995V95.9142H85.9864V90.9056Z" fill="black"/>
<path d="M96.0035 90.9056H101.012V95.9142H96.0035V90.9056Z" fill="black"/>
<path d="M106.021 90.9056H111.029V95.9142H106.021V90.9056Z" fill="black"/>
<path d="M111.029 90.9056H116.038V95.9142H111.029V90.9056Z" fill="black"/>
<path d="M10.8584 95.9142H15.8669V100.923H10.8584V95.9142Z" fill="black"/>
<path d="M20.8755 95.9142H25.884V100.923H20.8755V95.9142Z" fill="black"/>
<path d="M25.884 95.9142H30.8925V100.923H25.884V95.9142Z" fill="black"/>
<path d="M30.8925 95.9142H35.9011V100.923H30.8925V95.9142Z" fill="black"/>
<path d="M40.9096 95.9142H45.9182V100.923H40.9096V95.9142Z" fill="black"/>
<path d="M50.9267 95.9142H55.9352V100.923H50.9267V95.9142Z" fill="black"/>
<path d="M65.9523 95.9142H70.9608V100.923H65.9523V95.9142Z" fill="black"/>
<path d="M80.9779 95.9142H85.9864V100.923H80.9779V95.9142Z" fill="black"/>
<path d="M90.995 95.9142H96.0035V100.923H90.995V95.9142Z" fill="black"/>
<path d="M10.8584 100.923H15.8669V105.931H10.8584V100.923Z" fill="black"/>
<path d="M20.8755 100.923H25.884V105.931H20.8755V100.923Z" fill="black"/>
<path d="M25.884 100.923H30.8925V105.931H25.884V100.923Z" fill="black"/>
<path d="M30.8925 100.923H35.9011V105.931H30.8925V100.923Z" fill="black"/>
<path d="M40.9096 100.923H45.9182V105.931H40.9096V100.923Z" fill="black"/>
<path d="M65.9523 100.923H70.9608V105.931H65.9523V100.923Z" fill="black"/>
<path d="M70.9608 100.923H75.9694V105.931H70.9608V100.923Z" fill="black"/>
<path d="M80.9779 100.923H85.9864V105.931H80.9779V100.923Z" fill="black"/>
<path d="M96.0035 100.923H101.012V105.931H96.0035V100.923Z" fill="black"/>
<path d="M106.021 100.923H111.029V105.931H106.021V100.923Z" fill="black"/>
<path d="M111.029 100.923H116.038V105.931H111.029V100.923Z" fill="black"/>
<path d="M10.8584 105.931H15.8669V110.94H10.8584V105.931Z" fill="black"/>
<path d="M40.9096 105.931H45.9182V110.94H40.9096V105.931Z" fill="black"/>
<path d="M65.9523 105.931H70.9608V110.94H65.9523V105.931Z" fill="black"/>
<path d="M70.9608 105.931H75.9694V110.94H70.9608V105.931Z" fill="black"/>
<path d="M75.9694 105.931H80.9779V110.94H75.9694V105.931Z" fill="black"/>
<path d="M80.9779 105.931H85.9864V110.94H80.9779V105.931Z" fill="black"/>
<path d="M90.995 105.931H96.0035V110.94H90.995V105.931Z" fill="black"/>
<path d="M101.012 105.931H106.021V110.94H101.012V105.931Z" fill="black"/>
<path d="M106.021 105.931H111.029V110.94H106.021V105.931Z" fill="black"/>
<path d="M111.029 105.931H116.038V110.94H111.029V105.931Z" fill="black"/>
<path d="M10.8584 110.94H15.8669V115.948H10.8584V110.94Z" fill="black"/>
<path d="M15.8669 110.94H20.8755V115.948H15.8669V110.94Z" fill="black"/>
<path d="M20.8755 110.94H25.884V115.948H20.8755V110.94Z" fill="black"/>
<path d="M25.884 110.94H30.8925V115.948H25.884V110.94Z" fill="black"/>
<path d="M30.8925 110.94H35.9011V115.948H30.8925V110.94Z" fill="black"/>
<path d="M35.9011 110.94H40.9096V115.948H35.9011V110.94Z" fill="black"/>
<path d="M40.9096 110.94H45.9182V115.948H40.9096V110.94Z" fill="black"/>
<path d="M55.9352 110.94H60.9438V115.948H55.9352V110.94Z" fill="black"/>
<path d="M70.9608 110.94H75.9694V115.948H70.9608V110.94Z" fill="black"/>
<path d="M80.9779 110.94H85.9864V115.948H80.9779V110.94Z" fill="black"/>
<path d="M101.012 110.94H106.021V115.948H101.012V110.94Z" fill="black"/>
<path d="M15.8669 10.769H10.8584V15.7776M15.8669 10.769V15.7776M15.8669 10.769H20.8755M15.8669 15.7776H10.8584M15.8669 15.7776H20.8755M15.8669 15.7776V20.7861M10.8584 15.7776V20.7861M20.8755 10.769V15.7776M20.8755 10.769H25.884M20.8755 15.7776H25.884M25.884 10.769V15.7776M25.884 10.769H30.8925M25.884 15.7776H30.8925M30.8925 10.769V15.7776M30.8925 10.769H35.9011M30.8925 15.7776H35.9011M35.9011 10.769V15.7776M35.9011 10.769H40.9096M35.9011 15.7776H40.9096M40.9096 10.769V15.7776M40.9096 10.769H45.9182V15.7776M40.9096 15.7776H45.9182M40.9096 15.7776V20.7861M45.9182 15.7776V20.7861M60.9438 15.7776V10.769H55.9352V15.7776M60.9438 15.7776H55.9352M60.9438 15.7776V20.7861M60.9438 15.7776H65.9523M55.9352 15.7776V20.7861M85.9864 10.769H80.9779V15.7776M85.9864 10.769V15.7776M85.9864 10.769H90.995M85.9864 15.7776H80.9779M85.9864 15.7776H90.995M85.9864 15.7776V20.7861M80.9779 15.7776V20.7861M90.995 10.769V15.7776M90.995 10.769H96.0035M90.995 15.7776H96.0035M96.0035 10.769V15.7776M96.0035 10.769H101.012M96.0035 15.7776H101.012M101.012 10.769V15.7776M101.012 10.769H106.021M101.012 15.7776H106.021M106.021 10.769V15.7776M106.021 10.769H111.029M106.021 15.7776H111.029M111.029 10.769V15.7776M111.029 10.769H116.038V15.7776M111.029 15.7776H116.038M111.029 15.7776V20.7861M116.038 15.7776V20.7861M15.8669 20.7861H10.8584M15.8669 20.7861V25.7947M10.8584 20.7861V25.7947M45.9182 20.7861H40.9096M45.9182 20.7861V25.7947M40.9096 20.7861V25.7947M60.9438 20.7861H55.9352M60.9438 20.7861H65.9523M60.9438 20.7861V25.7947M55.9352 20.7861H50.9267V25.7947M55.9352 20.7861V25.7947M65.9523 15.7776V20.7861M65.9523 15.7776H70.9608M65.9523 20.7861H70.9608M65.9523 20.7861V25.7947M70.9608 15.7776V20.7861M70.9608 15.7776H75.9694V20.7861M70.9608 20.7861H75.9694M70.9608 20.7861V25.7947M75.9694 20.7861V25.7947M85.9864 20.7861H80.9779M85.9864 20.7861V25.7947M80.9779 20.7861V25.7947M116.038 20.7861H111.029M116.038 20.7861V25.7947M111.029 20.7861V25.7947M15.8669 25.7947H10.8584M15.8669 25.7947V30.8032M10.8584 25.7947V30.8032M25.884 20.7861H20.8755V25.7947M25.884 20.7861V25.7947M25.884 20.7861H30.8925M25.884 25.7947H20.8755M25.884 25.7947H30.8925M25.884 25.7947V30.8032M20.8755 25.7947V30.8032M30.8925 20.7861V25.7947M30.8925 20.7861H35.9011V25.7947M30.8925 25.7947H35.9011M30.8925 25.7947V30.8032M35.9011 25.7947V30.8032M45.9182 25.7947H40.9096M45.9182 25.7947V30.8032M40.9096 25.7947V30.8032M55.9352 25.7947H50.9267M55.9352 25.7947H60.9438M55.9352 25.7947V30.8032H50.9267V25.7947M60.9438 25.7947H65.9523M60.9438 25.7947V30.8032M70.9608 25.7947H65.9523M70.9608 25.7947H75.9694M70.9608 25.7947V30.8032M65.9523 25.7947V30.8032M75.9694 25.7947V30.8032M85.9864 25.7947H80.9779M85.9864 25.7947V30.8032M80.9779 25.7947V30.8032M96.0035 20.7861H90.995V25.7947M96.0035 20.7861V25.7947M96.0035 20.7861H101.012M96.0035 25.7947H90.995M96.0035 25.7947H101.012M96.0035 25.7947V30.8032M90.995 25.7947V30.8032M101.012 20.7861V25.7947M101.012 20.7861H106.021V25.7947M101.012 25.7947H106.021M101.012 25.7947V30.8032M106.021 25.7947V30.8032M116.038 25.7947H111.029M116.038 25.7947V30.8032M111.029 25.7947V30.8032M15.8669 30.8032H10.8584M15.8669 30.8032V35.8117M10.8584 30.8032V35.8117M25.884 30.8032H20.8755M25.884 30.8032H30.8925M25.884 30.8032V35.8117M20.8755 30.8032V35.8117H25.884M30.8925 30.8032H35.9011M30.8925 30.8032V35.8117M35.9011 30.8032V35.8117H30.8925M45.9182 30.8032H40.9096M45.9182 30.8032V35.8117M40.9096 30.8032V35.8117M65.9523 30.8032H60.9438M65.9523 30.8032H70.9608M65.9523 30.8032V35.8117M60.9438 30.8032V35.8117M70.9608 30.8032H75.9694M70.9608 30.8032V35.8117M75.9694 30.8032V35.8117H70.9608M85.9864 30.8032H80.9779M85.9864 30.8032V35.8117M80.9779 30.8032V35.8117M96.0035 30.8032H90.995M96.0035 30.8032H101.012M96.0035 30.8032V35.8117M90.995 30.8032V35.8117H96.0035M101.012 30.8032H106.021M101.012 30.8032V35.8117M106.021 30.8032V35.8117H101.012M116.038 30.8032H111.029M116.038 30.8032V35.8117M111.029 30.8032V35.8117M15.8669 35.8117H10.8584M15.8669 35.8117V40.8203M10.8584 35.8117V40.8203M25.884 35.8117H30.8925M45.9182 35.8117H40.9096M45.9182 35.8117V40.8203M40.9096 35.8117V40.8203M65.9523 35.8117H60.9438M65.9523 35.8117H70.9608M60.9438 35.8117H55.9352V40.8203M60.9438 35.8117V40.8203M85.9864 35.8117H80.9779M85.9864 35.8117V40.8203M80.9779 35.8117V40.8203M96.0035 35.8117H101.012M116.038 35.8117H111.029M116.038 35.8117V40.8203M111.029 35.8117V40.8203M15.8669 40.8203H10.8584M15.8669 40.8203V45.8288M15.8669 40.8203H20.8755M10.8584 40.8203V45.8288H15.8669M45.9182 40.8203H40.9096M45.9182 40.8203V45.8288H40.9096M40.9096 40.8203H35.9011M40.9096 40.8203V45.8288M60.9438 40.8203H55.9352M60.9438 40.8203H65.9523V45.8288M60.9438 40.8203V45.8288M55.9352 40.8203H50.9267V45.8288H55.9352M55.9352 40.8203V45.8288M85.9864 40.8203H80.9779M85.9864 40.8203V45.8288M85.9864 40.8203H90.995M80.9779 40.8203V45.8288H85.9864M116.038 40.8203H111.029M116.038 40.8203V45.8288H111.029M111.029 40.8203H106.021M111.029 40.8203V45.8288M15.8669 45.8288H20.8755M20.8755 40.8203V45.8288M20.8755 40.8203H25.884M20.8755 45.8288H25.884M25.884 40.8203V45.8288M25.884 40.8203H30.8925M25.884 45.8288H30.8925M30.8925 40.8203V45.8288M30.8925 40.8203H35.9011M30.8925 45.8288H35.9011M35.9011 40.8203V45.8288M35.9011 45.8288H40.9096M55.9352 45.8288H60.9438M55.9352 45.8288V50.8373M65.9523 45.8288H60.9438M65.9523 45.8288H70.9608M65.9523 45.8288V50.8373M60.9438 45.8288V50.8373M70.9608 45.8288H75.9694V40.8203H70.9608V45.8288ZM70.9608 45.8288V50.8373M85.9864 45.8288H90.995M90.995 40.8203V45.8288M90.995 40.8203H96.0035M90.995 45.8288H96.0035M96.0035 40.8203V45.8288M96.0035 40.8203H101.012M96.0035 45.8288H101.012M101.012 40.8203V45.8288M101.012 40.8203H106.021M101.012 45.8288H106.021M106.021 40.8203V45.8288M106.021 45.8288H111.029M60.9438 50.8373H55.9352M60.9438 50.8373V55.8459H55.9352M55.9352 50.8373V55.8459M70.9608 50.8373H65.9523M70.9608 50.8373V55.8459M70.9608 50.8373H75.9694V55.8459M65.9523 50.8373V55.8459H70.9608M30.8925 50.8373H25.884V55.8459M30.8925 50.8373V55.8459M30.8925 50.8373H35.9011V55.8459M30.8925 55.8459H25.884M30.8925 55.8459H35.9011M30.8925 55.8459V60.8544M25.884 55.8459V60.8544M35.9011 55.8459V60.8544M45.9182 50.8373H40.9096V55.8459H45.9182M45.9182 50.8373V55.8459M45.9182 50.8373H50.9267V55.8459M45.9182 55.8459H50.9267M45.9182 55.8459V60.8544M50.9267 55.8459V60.8544M50.9267 55.8459H55.9352M55.9352 55.8459V60.8544M70.9608 55.8459H75.9694M75.9694 55.8459H80.9779M75.9694 55.8459V60.8544H80.9779M101.012 50.8373H96.0035V55.8459M101.012 50.8373V55.8459M101.012 50.8373H106.021V55.8459M101.012 55.8459H96.0035M101.012 55.8459H106.021M101.012 55.8459V60.8544M96.0035 55.8459H90.995V60.8544M96.0035 55.8459V60.8544M106.021 55.8459V60.8544M106.021 55.8459H111.029V60.8544M20.8755 60.8544V55.8459H15.8669V60.8544M20.8755 60.8544H15.8669M20.8755 60.8544V65.8629M20.8755 60.8544H25.884M15.8669 60.8544V65.8629M30.8925 60.8544H25.884M30.8925 60.8544H35.9011M30.8925 60.8544V65.8629M25.884 60.8544V65.8629H20.8755M35.9011 60.8544V65.8629M50.9267 60.8544H45.9182M50.9267 60.8544H55.9352M50.9267 60.8544V65.8629H55.9352V60.8544M45.9182 60.8544H40.9096V65.8629M45.9182 60.8544V65.8629H40.9096M80.9779 55.8459V60.8544M80.9779 55.8459H85.9864V60.8544M80.9779 60.8544H85.9864M80.9779 60.8544V65.8629M85.9864 60.8544V65.8629H80.9779M96.0035 60.8544H90.995M96.0035 60.8544H101.012M96.0035 60.8544V65.8629H90.995V60.8544M101.012 60.8544H106.021M106.021 60.8544H111.029M106.021 60.8544V65.8629M111.029 60.8544V65.8629M111.029 60.8544H116.038V65.8629M20.8755 65.8629H15.8669M20.8755 65.8629V70.8715M15.8669 65.8629H10.8584V70.8715M15.8669 65.8629V70.8715M35.9011 65.8629H30.8925M35.9011 65.8629V70.8715M35.9011 65.8629H40.9096M30.8925 65.8629V70.8715M40.9096 65.8629V70.8715M65.9523 60.8544H60.9438V65.8629M65.9523 60.8544V65.8629M65.9523 60.8544H70.9608V65.8629M65.9523 65.8629H60.9438M65.9523 65.8629H70.9608M65.9523 65.8629V70.8715M60.9438 65.8629V70.8715M70.9608 65.8629V70.8715M70.9608 65.8629H75.9694M80.9779 65.8629H75.9694M80.9779 65.8629V70.8715M111.029 65.8629H106.021M111.029 65.8629H116.038M111.029 65.8629V70.8715M106.021 65.8629H101.012V70.8715H106.021M106.021 65.8629V70.8715M116.038 65.8629V70.8715M15.8669 70.8715H10.8584M15.8669 70.8715H20.8755M15.8669 70.8715V75.88M10.8584 70.8715V75.88H15.8669M20.8755 70.8715V75.88M20.8755 70.8715H25.884M35.9011 70.8715H30.8925M35.9011 70.8715H40.9096M30.8925 70.8715H25.884M30.8925 70.8715V75.88H25.884M40.9096 70.8715H45.9182M40.9096 70.8715V75.88H45.9182M65.9523 70.8715H60.9438M65.9523 70.8715H70.9608M65.9523 70.8715V75.88M60.9438 70.8715V75.88H65.9523M70.9608 70.8715H75.9694M70.9608 70.8715V75.88M75.9694 65.8629V70.8715M75.9694 70.8715H80.9779M75.9694 70.8715V75.88M80.9779 70.8715V75.88M106.021 70.8715H111.029M111.029 70.8715H116.038M111.029 70.8715V75.88H116.038V70.8715M15.8669 75.88H20.8755M20.8755 75.88H25.884M25.884 70.8715V75.88M45.9182 70.8715V75.88M45.9182 70.8715H50.9267V75.88M45.9182 75.88H50.9267M50.9267 75.88H55.9352V80.8885M50.9267 75.88V80.8885M65.9523 75.88H70.9608M70.9608 75.88H75.9694M70.9608 75.88V80.8885M75.9694 75.88H80.9779M75.9694 75.88V80.8885M80.9779 75.88V80.8885M80.9779 75.88H85.9864M55.9352 80.8885H50.9267M55.9352 80.8885V85.8971M50.9267 80.8885V85.8971H55.9352M75.9694 80.8885H70.9608M75.9694 80.8885H80.9779M75.9694 80.8885V85.8971M70.9608 80.8885V85.8971M80.9779 80.8885H85.9864M80.9779 80.8885V85.8971M85.9864 75.88V80.8885M85.9864 75.88H90.995V80.8885M85.9864 80.8885H90.995M85.9864 80.8885V85.8971M90.995 80.8885V85.8971M90.995 80.8885H96.0035M101.012 75.88H96.0035V80.8885M101.012 75.88V80.8885M101.012 75.88H106.021V80.8885H101.012M101.012 80.8885H96.0035M101.012 80.8885V85.8971M96.0035 80.8885V85.8971M15.8669 80.8885H10.8584V85.8971M15.8669 80.8885V85.8971M15.8669 80.8885H20.8755M15.8669 85.8971H10.8584M15.8669 85.8971H20.8755M15.8669 85.8971V90.9056M10.8584 85.8971V90.9056M20.8755 80.8885V85.8971M20.8755 80.8885H25.884M20.8755 85.8971H25.884M25.884 80.8885V85.8971M25.884 80.8885H30.8925M25.884 85.8971H30.8925M30.8925 80.8885V85.8971M30.8925 80.8885H35.9011M30.8925 85.8971H35.9011M35.9011 80.8885V85.8971M35.9011 80.8885H40.9096M35.9011 85.8971H40.9096M40.9096 80.8885V85.8971M40.9096 80.8885H45.9182V85.8971M40.9096 85.8971H45.9182M40.9096 85.8971V90.9056M45.9182 85.8971V90.9056M55.9352 85.8971H60.9438M55.9352 85.8971V90.9056M60.9438 85.8971H65.9523V80.8885H60.9438V85.8971ZM60.9438 85.8971V90.9056M75.9694 85.8971H70.9608M75.9694 85.8971V90.9056M70.9608 85.8971V90.9056M85.9864 85.8971H80.9779M85.9864 85.8971H90.995M85.9864 85.8971V90.9056M80.9779 85.8971V90.9056M90.995 85.8971H96.0035M90.995 85.8971V90.9056M96.0035 85.8971H101.012M96.0035 85.8971V90.9056M101.012 85.8971H106.021V90.9056M101.012 85.8971V90.9056M15.8669 90.9056H10.8584M15.8669 90.9056V95.9142M10.8584 90.9056V95.9142M45.9182 90.9056H40.9096M45.9182 90.9056V95.9142M40.9096 90.9056V95.9142M60.9438 90.9056H55.9352M60.9438 90.9056V95.9142M60.9438 90.9056H65.9523V95.9142M55.9352 90.9056H50.9267V95.9142M55.9352 90.9056V95.9142M75.9694 90.9056H70.9608M75.9694 90.9056V95.9142H70.9608M70.9608 90.9056V95.9142M85.9864 90.9056H80.9779M85.9864 90.9056H90.995M85.9864 90.9056V95.9142M80.9779 90.9056V95.9142M90.995 90.9056H96.0035M90.995 90.9056V95.9142M96.0035 90.9056H101.012M96.0035 90.9056V95.9142M106.021 90.9056H101.012M106.021 90.9056H111.029M106.021 90.9056V95.9142H111.029M101.012 90.9056V95.9142H96.0035M116.038 90.9056V85.8971H111.029V90.9056M116.038 90.9056H111.029M116.038 90.9056V95.9142H111.029M111.029 90.9056V95.9142M15.8669 95.9142H10.8584M15.8669 95.9142V100.923M10.8584 95.9142V100.923M25.884 90.9056H20.8755V95.9142M25.884 90.9056V95.9142M25.884 90.9056H30.8925M25.884 95.9142H20.8755M25.884 95.9142H30.8925M25.884 95.9142V100.923M20.8755 95.9142V100.923M30.8925 90.9056V95.9142M30.8925 90.9056H35.9011V95.9142M30.8925 95.9142H35.9011M30.8925 95.9142V100.923M35.9011 95.9142V100.923M45.9182 95.9142H40.9096M45.9182 95.9142V100.923M40.9096 95.9142V100.923M55.9352 95.9142H50.9267M55.9352 95.9142H60.9438M55.9352 95.9142V100.923H50.9267V95.9142M60.9438 95.9142H65.9523M65.9523 95.9142H70.9608M65.9523 95.9142V100.923M70.9608 95.9142V100.923M85.9864 95.9142H80.9779M85.9864 95.9142H90.995M85.9864 95.9142V100.923M80.9779 95.9142V100.923M90.995 95.9142H96.0035M90.995 95.9142V100.923H96.0035M96.0035 95.9142V100.923M15.8669 100.923H10.8584M15.8669 100.923V105.931M10.8584 100.923V105.931M25.884 100.923H20.8755M25.884 100.923H30.8925M25.884 100.923V105.931M20.8755 100.923V105.931H25.884M30.8925 100.923H35.9011M30.8925 100.923V105.931M35.9011 100.923V105.931H30.8925M45.9182 100.923H40.9096M45.9182 100.923V105.931M40.9096 100.923V105.931M70.9608 100.923H65.9523M70.9608 100.923V105.931M70.9608 100.923H75.9694V105.931M65.9523 100.923V105.931M85.9864 100.923H80.9779M85.9864 100.923V105.931M80.9779 100.923V105.931M96.0035 100.923H101.012V105.931M96.0035 100.923V105.931M15.8669 105.931H10.8584M15.8669 105.931V110.94M10.8584 105.931V110.94M25.884 105.931H30.8925M45.9182 105.931H40.9096M45.9182 105.931V110.94M40.9096 105.931V110.94M70.9608 105.931H65.9523M70.9608 105.931H75.9694M70.9608 105.931V110.94M65.9523 105.931V110.94H70.9608M75.9694 105.931V110.94M75.9694 105.931H80.9779M85.9864 105.931H80.9779M85.9864 105.931V110.94M80.9779 105.931V110.94M101.012 105.931H96.0035M101.012 105.931H106.021M101.012 105.931V110.94M96.0035 105.931H90.995V110.94H96.0035V105.931ZM111.029 100.923H106.021V105.931M111.029 100.923V105.931M111.029 100.923H116.038V105.931M111.029 105.931H106.021M111.029 105.931H116.038M111.029 105.931V110.94M106.021 105.931V110.94M116.038 105.931V110.94H111.029M15.8669 110.94H10.8584M15.8669 110.94V115.948M15.8669 110.94H20.8755M10.8584 110.94V115.948H15.8669M45.9182 110.94H40.9096M45.9182 110.94V115.948H40.9096M40.9096 110.94H35.9011M40.9096 110.94V115.948M70.9608 110.94H75.9694M70.9608 110.94V115.948H75.9694V110.94M75.9694 110.94H80.9779M80.9779 110.94H85.9864M80.9779 110.94V115.948H85.9864V110.94M106.021 110.94H101.012M106.021 110.94H111.029M106.021 110.94V115.948H101.012V110.94M15.8669 115.948H20.8755M20.8755 110.94V115.948M20.8755 110.94H25.884M20.8755 115.948H25.884M25.884 110.94V115.948M25.884 110.94H30.8925M25.884 115.948H30.8925M30.8925 110.94V115.948M30.8925 110.94H35.9011M30.8925 115.948H35.9011M35.9011 110.94V115.948M35.9011 115.948H40.9096M55.9352 110.94H60.9438V115.948H55.9352V110.94Z" stroke="black" stroke-width="0.260259"/>
</svg>
